<mxfile host="app.diagrams.net" agent="Mozilla/5.0 (Windows NT 10.0; Win64; x64) AppleWebKit/537.36 (KHTML, like Gecko) Chrome/126.0.0.0 Safari/537.36 OPR/112.0.0.0 (Edition 360-1)" version="24.7.12">
  <diagram name="PÃ¡gina-1" id="yiwPIzI0PD-VjfqD7JT3">
    <mxGraphModel grid="0" page="1" gridSize="10" guides="1" tooltips="1" connect="1" arrows="1" fold="1" pageScale="1" pageWidth="1600" pageHeight="900" math="0" shadow="0">
      <root>
        <mxCell id="0" />
        <mxCell id="1" parent="0" />
        <mxCell id="39uBkTiQUV5Vk6SK4R4s-1" value="PAGO" style="swimlane;childLayout=stackLayout;resizeParent=1;resizeParentMax=0;startSize=20;horizontal=0;horizontalStack=1;fillColor=none;" vertex="1" parent="1">
          <mxGeometry x="144" y="14" width="366" height="614" as="geometry" />
        </mxCell>
        <mxCell id="39uBkTiQUV5Vk6SK4R4s-40" style="edgeStyle=orthogonalEdgeStyle;rounded=0;orthogonalLoop=1;jettySize=auto;html=1;exitX=1;exitY=0.5;exitDx=0;exitDy=0;entryX=0;entryY=0.5;entryDx=0;entryDy=0;" edge="1" parent="39uBkTiQUV5Vk6SK4R4s-1" source="39uBkTiQUV5Vk6SK4R4s-11" target="39uBkTiQUV5Vk6SK4R4s-14">
          <mxGeometry relative="1" as="geometry" />
        </mxCell>
        <mxCell id="39uBkTiQUV5Vk6SK4R4s-42" style="edgeStyle=orthogonalEdgeStyle;rounded=0;orthogonalLoop=1;jettySize=auto;html=1;exitX=0;exitY=0.5;exitDx=0;exitDy=0;entryX=1;entryY=0.5;entryDx=0;entryDy=0;" edge="1" parent="39uBkTiQUV5Vk6SK4R4s-1" source="39uBkTiQUV5Vk6SK4R4s-3" target="39uBkTiQUV5Vk6SK4R4s-43">
          <mxGeometry relative="1" as="geometry">
            <mxPoint x="147.670166015625" y="190" as="targetPoint" />
          </mxGeometry>
        </mxCell>
        <mxCell id="39uBkTiQUV5Vk6SK4R4s-45" style="edgeStyle=orthogonalEdgeStyle;rounded=0;orthogonalLoop=1;jettySize=auto;html=1;exitX=0.5;exitY=1;exitDx=0;exitDy=0;entryX=0;entryY=0.5;entryDx=0;entryDy=0;" edge="1" parent="39uBkTiQUV5Vk6SK4R4s-1" source="39uBkTiQUV5Vk6SK4R4s-43" target="39uBkTiQUV5Vk6SK4R4s-13">
          <mxGeometry relative="1" as="geometry" />
        </mxCell>
        <mxCell id="39uBkTiQUV5Vk6SK4R4s-2" value="Cliente" style="swimlane;startSize=20;fillColor=none;" vertex="1" parent="39uBkTiQUV5Vk6SK4R4s-1">
          <mxGeometry x="20" width="174" height="614" as="geometry">
            <mxRectangle x="20" width="32" height="476" as="alternateBounds" />
          </mxGeometry>
        </mxCell>
        <mxCell id="39uBkTiQUV5Vk6SK4R4s-10" value="" style="ellipse;html=1;shape=startState;fillColor=#000000;strokeColor=#121212;strokeWidth=2;" vertex="1" parent="39uBkTiQUV5Vk6SK4R4s-2">
          <mxGeometry x="72" y="21" width="30" height="30" as="geometry" />
        </mxCell>
        <mxCell id="39uBkTiQUV5Vk6SK4R4s-12" value="" style="edgeStyle=orthogonalEdgeStyle;html=1;verticalAlign=bottom;endArrow=open;endSize=8;strokeColor=#121212;rounded=0;strokeWidth=2;entryX=0.5;entryY=0;entryDx=0;entryDy=0;" edge="1" parent="39uBkTiQUV5Vk6SK4R4s-2">
          <mxGeometry relative="1" as="geometry">
            <mxPoint x="87" y="84" as="targetPoint" />
            <mxPoint x="87" y="44" as="sourcePoint" />
            <Array as="points">
              <mxPoint x="87" y="76" />
            </Array>
          </mxGeometry>
        </mxCell>
        <mxCell id="39uBkTiQUV5Vk6SK4R4s-11" value="&lt;b&gt;Navegar en el Aplicativo&lt;/b&gt;" style="rounded=1;whiteSpace=wrap;html=1;fontSize=12;glass=0;strokeWidth=1;shadow=0;fillColor=none;" vertex="1" parent="39uBkTiQUV5Vk6SK4R4s-2">
          <mxGeometry x="25" y="81" width="124" height="53" as="geometry" />
        </mxCell>
        <mxCell id="39uBkTiQUV5Vk6SK4R4s-43" value="&lt;b&gt;Seleccionar y agregar al carrito&lt;/b&gt;" style="rounded=1;whiteSpace=wrap;html=1;fontSize=12;glass=0;strokeWidth=1;shadow=0;fillColor=none;" vertex="1" parent="39uBkTiQUV5Vk6SK4R4s-2">
          <mxGeometry x="25" y="170" width="120" height="40" as="geometry" />
        </mxCell>
        <mxCell id="39uBkTiQUV5Vk6SK4R4s-58" style="edgeStyle=orthogonalEdgeStyle;rounded=0;orthogonalLoop=1;jettySize=auto;html=1;exitX=0.5;exitY=1;exitDx=0;exitDy=0;entryX=0.5;entryY=0;entryDx=0;entryDy=0;" edge="1" parent="39uBkTiQUV5Vk6SK4R4s-2" source="39uBkTiQUV5Vk6SK4R4s-46" target="39uBkTiQUV5Vk6SK4R4s-32">
          <mxGeometry relative="1" as="geometry" />
        </mxCell>
        <mxCell id="39uBkTiQUV5Vk6SK4R4s-46" value="Revisar resumen de carrito" style="rounded=1;whiteSpace=wrap;html=1;fontSize=12;glass=0;strokeWidth=1;shadow=0;fillColor=none;" vertex="1" parent="39uBkTiQUV5Vk6SK4R4s-2">
          <mxGeometry x="14" y="291" width="120" height="40" as="geometry" />
        </mxCell>
        <mxCell id="-HnaH-x4T5noV3FcJ2Ip-8" style="rounded=0;orthogonalLoop=1;jettySize=auto;html=1;exitX=1;exitY=1;exitDx=0;exitDy=0;entryX=1;entryY=0.25;entryDx=0;entryDy=0;edgeStyle=orthogonalEdgeStyle;" edge="1" parent="39uBkTiQUV5Vk6SK4R4s-2" source="39uBkTiQUV5Vk6SK4R4s-32" target="39uBkTiQUV5Vk6SK4R4s-67">
          <mxGeometry relative="1" as="geometry">
            <Array as="points">
              <mxPoint x="158" y="428" />
              <mxPoint x="158" y="537" />
            </Array>
          </mxGeometry>
        </mxCell>
        <mxCell id="39uBkTiQUV5Vk6SK4R4s-32" value="&lt;b&gt;Eliminar o confirmar productos&lt;/b&gt;" style="rhombus;whiteSpace=wrap;html=1;fillColor=none;" vertex="1" parent="39uBkTiQUV5Vk6SK4R4s-2">
          <mxGeometry x="22.619999999999997" y="354" width="102.75" height="98" as="geometry" />
        </mxCell>
        <mxCell id="39uBkTiQUV5Vk6SK4R4s-60" value="si elimina" style="text;html=1;align=center;verticalAlign=middle;whiteSpace=wrap;rounded=0;" vertex="1" parent="39uBkTiQUV5Vk6SK4R4s-2">
          <mxGeometry x="114" y="368" width="60" height="30" as="geometry" />
        </mxCell>
        <mxCell id="39uBkTiQUV5Vk6SK4R4s-66" style="edgeStyle=orthogonalEdgeStyle;rounded=0;orthogonalLoop=1;jettySize=auto;html=1;exitX=0;exitY=0.5;exitDx=0;exitDy=0;entryX=0;entryY=0.5;entryDx=0;entryDy=0;" edge="1" parent="39uBkTiQUV5Vk6SK4R4s-2" source="39uBkTiQUV5Vk6SK4R4s-65" target="39uBkTiQUV5Vk6SK4R4s-32">
          <mxGeometry relative="1" as="geometry" />
        </mxCell>
        <mxCell id="39uBkTiQUV5Vk6SK4R4s-71" style="edgeStyle=orthogonalEdgeStyle;rounded=0;orthogonalLoop=1;jettySize=auto;html=1;exitX=0.5;exitY=1;exitDx=0;exitDy=0;entryX=0.5;entryY=0;entryDx=0;entryDy=0;" edge="1" parent="39uBkTiQUV5Vk6SK4R4s-2" source="39uBkTiQUV5Vk6SK4R4s-65" target="39uBkTiQUV5Vk6SK4R4s-67">
          <mxGeometry relative="1" as="geometry" />
        </mxCell>
        <mxCell id="39uBkTiQUV5Vk6SK4R4s-65" value="Ver carrito actualizado" style="rounded=1;whiteSpace=wrap;html=1;fontSize=12;glass=0;strokeWidth=1;shadow=0;fillColor=none;" vertex="1" parent="39uBkTiQUV5Vk6SK4R4s-2">
          <mxGeometry x="22.62" y="463" width="109" height="40" as="geometry" />
        </mxCell>
        <mxCell id="39uBkTiQUV5Vk6SK4R4s-67" value="Confirmar lista de productos" style="rounded=1;whiteSpace=wrap;html=1;fontSize=12;glass=0;strokeWidth=1;shadow=0;fillColor=none;" vertex="1" parent="39uBkTiQUV5Vk6SK4R4s-2">
          <mxGeometry x="16.370000000000008" y="527" width="109" height="40" as="geometry" />
        </mxCell>
        <mxCell id="39uBkTiQUV5Vk6SK4R4s-88" value="Si no elimina" style="text;html=1;align=center;verticalAlign=middle;whiteSpace=wrap;rounded=0;" vertex="1" parent="39uBkTiQUV5Vk6SK4R4s-2">
          <mxGeometry x="85" y="436" width="72" height="23" as="geometry" />
        </mxCell>
        <mxCell id="39uBkTiQUV5Vk6SK4R4s-53" style="edgeStyle=orthogonalEdgeStyle;rounded=0;orthogonalLoop=1;jettySize=auto;html=1;exitX=0;exitY=0.5;exitDx=0;exitDy=0;entryX=1;entryY=0.5;entryDx=0;entryDy=0;" edge="1" parent="39uBkTiQUV5Vk6SK4R4s-1" source="39uBkTiQUV5Vk6SK4R4s-51" target="39uBkTiQUV5Vk6SK4R4s-46">
          <mxGeometry relative="1" as="geometry" />
        </mxCell>
        <mxCell id="39uBkTiQUV5Vk6SK4R4s-59" style="edgeStyle=orthogonalEdgeStyle;rounded=0;orthogonalLoop=1;jettySize=auto;html=1;exitX=1;exitY=0.5;exitDx=0;exitDy=0;entryX=0;entryY=0.5;entryDx=0;entryDy=0;" edge="1" parent="39uBkTiQUV5Vk6SK4R4s-1" source="39uBkTiQUV5Vk6SK4R4s-32" target="39uBkTiQUV5Vk6SK4R4s-62">
          <mxGeometry relative="1" as="geometry">
            <mxPoint x="229" y="403" as="targetPoint" />
          </mxGeometry>
        </mxCell>
        <mxCell id="-HnaH-x4T5noV3FcJ2Ip-1" style="edgeStyle=orthogonalEdgeStyle;rounded=0;orthogonalLoop=1;jettySize=auto;html=1;exitX=0;exitY=0.5;exitDx=0;exitDy=0;entryX=1;entryY=0.5;entryDx=0;entryDy=0;" edge="1" parent="39uBkTiQUV5Vk6SK4R4s-1" source="39uBkTiQUV5Vk6SK4R4s-63" target="39uBkTiQUV5Vk6SK4R4s-65">
          <mxGeometry relative="1" as="geometry" />
        </mxCell>
        <mxCell id="39uBkTiQUV5Vk6SK4R4s-9" value="Aplicativo" style="swimlane;startSize=20;fillColor=none;" vertex="1" parent="39uBkTiQUV5Vk6SK4R4s-1">
          <mxGeometry x="194" width="172" height="614" as="geometry">
            <mxRectangle x="52" width="32" height="476" as="alternateBounds" />
          </mxGeometry>
        </mxCell>
        <mxCell id="39uBkTiQUV5Vk6SK4R4s-52" style="edgeStyle=orthogonalEdgeStyle;rounded=0;orthogonalLoop=1;jettySize=auto;html=1;exitX=0.5;exitY=1;exitDx=0;exitDy=0;entryX=0.5;entryY=0;entryDx=0;entryDy=0;" edge="1" parent="39uBkTiQUV5Vk6SK4R4s-9" source="39uBkTiQUV5Vk6SK4R4s-13" target="39uBkTiQUV5Vk6SK4R4s-51">
          <mxGeometry relative="1" as="geometry" />
        </mxCell>
        <mxCell id="39uBkTiQUV5Vk6SK4R4s-13" value="Actualizar carrito" style="rounded=1;whiteSpace=wrap;html=1;fontSize=12;glass=0;strokeWidth=1;shadow=0;fillColor=none;" vertex="1" parent="39uBkTiQUV5Vk6SK4R4s-9">
          <mxGeometry x="28" y="233" width="120" height="40" as="geometry" />
        </mxCell>
        <mxCell id="39uBkTiQUV5Vk6SK4R4s-14" value="&lt;b&gt;Solicitar productos&lt;/b&gt;" style="rounded=1;whiteSpace=wrap;html=1;fontSize=12;glass=0;strokeWidth=1;shadow=0;fillColor=none;" vertex="1" parent="39uBkTiQUV5Vk6SK4R4s-9">
          <mxGeometry x="23.5" y="107" width="120" height="40" as="geometry" />
        </mxCell>
        <mxCell id="39uBkTiQUV5Vk6SK4R4s-3" value="&lt;b&gt;Mostrar productos&lt;/b&gt;" style="rounded=1;whiteSpace=wrap;html=1;fontSize=12;glass=0;strokeWidth=1;shadow=0;fillColor=none;" vertex="1" parent="39uBkTiQUV5Vk6SK4R4s-9">
          <mxGeometry x="28" y="170" width="116" height="40" as="geometry" />
        </mxCell>
        <mxCell id="39uBkTiQUV5Vk6SK4R4s-51" value="&amp;nbsp;Mostrar carrito actualizado al cliente" style="rounded=1;whiteSpace=wrap;html=1;fontSize=12;glass=0;strokeWidth=1;shadow=0;fillColor=none;" vertex="1" parent="39uBkTiQUV5Vk6SK4R4s-9">
          <mxGeometry x="28" y="288" width="126" height="46" as="geometry" />
        </mxCell>
        <mxCell id="39uBkTiQUV5Vk6SK4R4s-64" style="edgeStyle=orthogonalEdgeStyle;rounded=0;orthogonalLoop=1;jettySize=auto;html=1;exitX=0.5;exitY=1;exitDx=0;exitDy=0;entryX=0.5;entryY=0;entryDx=0;entryDy=0;" edge="1" parent="39uBkTiQUV5Vk6SK4R4s-9" source="39uBkTiQUV5Vk6SK4R4s-62" target="39uBkTiQUV5Vk6SK4R4s-63">
          <mxGeometry relative="1" as="geometry" />
        </mxCell>
        <mxCell id="39uBkTiQUV5Vk6SK4R4s-62" value="Eliminar productos selecionados del carrito" style="rounded=1;whiteSpace=wrap;html=1;fontSize=12;glass=0;strokeWidth=1;shadow=0;fillColor=none;" vertex="1" parent="39uBkTiQUV5Vk6SK4R4s-9">
          <mxGeometry x="23" y="380" width="126" height="46" as="geometry" />
        </mxCell>
        <mxCell id="39uBkTiQUV5Vk6SK4R4s-63" value="&amp;nbsp;Mostrar carrito actualizado sin los productos" style="rounded=1;whiteSpace=wrap;html=1;fontSize=12;glass=0;strokeWidth=1;shadow=0;fillColor=none;" vertex="1" parent="39uBkTiQUV5Vk6SK4R4s-9">
          <mxGeometry x="16.5" y="458" width="127.5" height="50" as="geometry" />
        </mxCell>
        <mxCell id="-HnaH-x4T5noV3FcJ2Ip-7" style="rounded=0;orthogonalLoop=1;jettySize=auto;html=1;exitX=0.5;exitY=1;exitDx=0;exitDy=0;entryX=0.5;entryY=0;entryDx=0;entryDy=0;" edge="1" parent="39uBkTiQUV5Vk6SK4R4s-9" source="-HnaH-x4T5noV3FcJ2Ip-4" target="39uBkTiQUV5Vk6SK4R4s-6">
          <mxGeometry relative="1" as="geometry" />
        </mxCell>
        <mxCell id="-HnaH-x4T5noV3FcJ2Ip-4" value="Procesar pedido" style="rounded=1;whiteSpace=wrap;html=1;fontSize=12;glass=0;strokeWidth=1;shadow=0;fillColor=none;" vertex="1" parent="39uBkTiQUV5Vk6SK4R4s-9">
          <mxGeometry x="33.5" y="527" width="109" height="40" as="geometry" />
        </mxCell>
        <mxCell id="39uBkTiQUV5Vk6SK4R4s-6" value="" style="ellipse;html=1;shape=endState;fillColor=#000000;strokeColor=#000000;" vertex="1" parent="39uBkTiQUV5Vk6SK4R4s-9">
          <mxGeometry x="73" y="584" width="30" height="30" as="geometry" />
        </mxCell>
        <mxCell id="-HnaH-x4T5noV3FcJ2Ip-6" style="rounded=0;orthogonalLoop=1;jettySize=auto;html=1;exitX=1;exitY=0.75;exitDx=0;exitDy=0;entryX=0;entryY=0.75;entryDx=0;entryDy=0;" edge="1" parent="39uBkTiQUV5Vk6SK4R4s-1" source="39uBkTiQUV5Vk6SK4R4s-67" target="-HnaH-x4T5noV3FcJ2Ip-4">
          <mxGeometry relative="1" as="geometry" />
        </mxCell>
        <mxCell id="39uBkTiQUV5Vk6SK4R4s-29" value="Base De Datos" style="swimlane;startSize=20;fillColor=none;" vertex="1" parent="1">
          <mxGeometry x="510" y="14" width="174" height="614" as="geometry" />
        </mxCell>
        <mxCell id="39uBkTiQUV5Vk6SK4R4s-37" value="&lt;b&gt;Enviar productos disponibles&lt;/b&gt;" style="rounded=1;whiteSpace=wrap;html=1;fontSize=12;glass=0;strokeWidth=1;shadow=0;fillColor=none;" vertex="1" parent="39uBkTiQUV5Vk6SK4R4s-29">
          <mxGeometry x="30.5" y="108" width="120" height="40" as="geometry" />
        </mxCell>
        <mxCell id="39uBkTiQUV5Vk6SK4R4s-39" style="edgeStyle=orthogonalEdgeStyle;rounded=0;orthogonalLoop=1;jettySize=auto;html=1;exitX=1;exitY=0.5;exitDx=0;exitDy=0;entryX=0;entryY=0.5;entryDx=0;entryDy=0;" edge="1" parent="1" source="39uBkTiQUV5Vk6SK4R4s-14" target="39uBkTiQUV5Vk6SK4R4s-37">
          <mxGeometry relative="1" as="geometry" />
        </mxCell>
        <mxCell id="39uBkTiQUV5Vk6SK4R4s-41" style="edgeStyle=orthogonalEdgeStyle;rounded=0;orthogonalLoop=1;jettySize=auto;html=1;exitX=0.5;exitY=1;exitDx=0;exitDy=0;entryX=1;entryY=0.5;entryDx=0;entryDy=0;" edge="1" parent="1" source="39uBkTiQUV5Vk6SK4R4s-37" target="39uBkTiQUV5Vk6SK4R4s-3">
          <mxGeometry relative="1" as="geometry" />
        </mxCell>
      </root>
    </mxGraphModel>
  </diagram>
</mxfile>
